<?xml version="1.0" encoding="utf-8"?>
<!-- Generator: Adobe Illustrator 16.0.0, SVG Export Plug-In . SVG Version: 6.00 Build 0)  -->
<!DOCTYPE svg PUBLIC "-//W3C//DTD SVG 1.1//EN" "http://www.w3.org/Graphics/SVG/1.1/DTD/svg11.dtd">
<svg version="1.1" id="レイヤー_1" xmlns="http://www.w3.org/2000/svg" xmlns:xlink="http://www.w3.org/1999/xlink" x="0px"
	 y="0px" width="676.983px" height="144.801px" viewBox="0 0 676.983 144.801" enable-background="new 0 0 676.983 144.801"
	 xml:space="preserve">
<rect x="0" y="0" display="none" fill="#111827" width="1024" height="576"/>
<text transform="matrix(1 0 0 1 162.8074 356.0999)" display="none" enable-background="new    "><tspan x="0" y="0" display="inline" fill="#FFFFFF" font-family="'ZenKakuGothicNew-Bold'" font-size="200">Ki</tspan><tspan x="174.795" y="0" display="inline" fill="#FFFFFF" font-family="'ZenKakuGothicNew-Bold'" font-size="200" letter-spacing="-7">k</tspan><tspan x="268.194" y="0" display="inline" fill="#FFFFFF" font-family="'ZenKakuGothicNew-Bold'" font-size="200">oune</tspan></text>
<path fill="#06B6D4" d="M134.193,30.6c-3.869,0-7.2-1.399-10-4.2c-2.8-2.8-4.2-6.131-4.2-10c0-3.864,1.4-7.199,4.2-10
	c2.8-2.8,6.131-4.199,10-4.199c3.866,0,7.2,1.399,10,4.199c2.8,2.801,4.2,6.136,4.2,10c0,3.869-1.4,7.2-4.2,10
	C141.393,29.2,138.059,30.6,134.193,30.6z"/>
<rect x="123.193" y="46.4" fill="#FFFFFF" width="22.4" height="96.2"/>
<path fill="#FFFFFF" d="M172.793,142.6V0h22.6v86.199l33.4-39.8h27.2l-37.801,43.401l40,52.799h-27l-35.8-48.799V142.6H172.793z"/>
<path fill="#FFFFFF" d="M315.591,144.801c-8.8,0-16.7-2.103-23.7-6.301c-7-4.199-12.534-10.065-16.6-17.601
	c-4.068-7.531-6.101-16.365-6.101-26.5c0-10.131,2.031-18.966,6.101-26.5c4.065-7.53,9.6-13.399,16.6-17.6s14.9-6.3,23.7-6.3
	c9.064,0,17.1,2.1,24.101,6.3c7,4.2,12.5,10.068,16.5,17.6c4,7.535,6,16.37,6,26.5c0,10.135-2,18.969-6,26.5
	c-4,7.534-9.5,13.4-16.5,17.601C332.69,142.698,324.655,144.801,315.591,144.801z M315.591,124.4c7.064,0,12.831-2.6,17.3-7.801
	c4.466-5.199,6.7-12.601,6.7-22.199s-2.234-17-6.7-22.199c-4.469-5.2-10.233-7.801-17.3-7.801c-6.936,0-12.6,2.601-17,7.801
	c-4.4,5.199-6.6,12.601-6.6,22.199s2.199,17,6.6,22.199C302.989,121.801,308.655,124.4,315.591,124.4z"/>
<path fill="#FFFFFF" d="M413.987,144.801c-10,0-18.169-3.201-24.5-9.602c-6.334-6.398-9.5-15.865-9.5-28.398V46.4h22.601v55.401
	c0,7.334,1.565,12.934,4.7,16.799c3.132,3.869,7.23,5.801,12.3,5.801c5.73,0,10.399-2,14-6c3.6-4,5.399-9.865,5.399-17.6V46.4
	h22.601v96.2h-20.199l-1.201-11.399c-2.533,3.602-6,6.77-10.398,9.5C425.389,143.432,420.119,144.801,413.987,144.801z"/>
<path fill="#FFFFFF" d="M485.985,142.6V46.4h20.199l1.2,11.4c2.665-3.731,6.2-6.966,10.601-9.7c4.399-2.73,9.601-4.1,15.601-4.1
	c10,0,18.166,3.2,24.5,9.6c6.331,6.4,9.5,15.8,9.5,28.201V142.6h-22.601v-55.4c0-7.601-1.534-13.3-4.601-17.1
	c-3.069-3.8-7.2-5.7-12.399-5.7c-5.733,0-10.399,1.97-14,5.9c-3.601,3.934-5.399,9.768-5.399,17.5v54.8H485.985z"/>
<path fill="#FFFFFF" d="M634.182,144.801c-14,0-25.334-4.232-34-12.701c-8.668-8.465-13-21.031-13-37.699
	c0-10.399,1.932-19.365,5.801-26.899c3.865-7.531,9.267-13.331,16.199-17.4c6.932-4.064,14.865-6.1,23.801-6.1
	c8.933,0,16.531,2.169,22.8,6.5c6.266,4.334,11.065,10.233,14.399,17.7c3.332,7.469,5,15.867,5,25.199V98.6h-65.8
	c0.531,9.601,3.065,16.436,7.601,20.5c4.531,4.069,10.399,6.101,17.601,6.101c6.266,0,11.399-1.5,15.399-4.5s7.466-7.5,10.4-13.5
	l16.6,11.602c-4.936,9.199-10.969,15.834-18.1,19.898C651.75,142.766,643.514,144.801,634.182,144.801z M610.384,81.2h42.601
	c-1.067-6.267-3.368-11.101-6.899-14.5c-3.535-3.4-8.035-5.101-13.5-5.101c-5.869,0-10.7,1.601-14.5,4.8
	C614.283,69.6,611.715,74.535,610.384,81.2z"/>
<g id="XMLID_1_">
	<g>
		<polygon fill="#FFFFFF" points="47.599,67.8 105.599,142.6 76,142.6 23,71 22.989,71 22.989,63.5 23,63.4 75.399,2.6 104.399,2.6 
					"/>
		<polygon fill="#06B6D4" points="22.989,71 23,71 23,142.6 0,142.6 0,2.6 23,2.6 23,63.4 22.989,63.5 		"/>
	</g>
</g>
</svg>
