<?xml version="1.0" encoding="utf-8"?>
<!-- Generator: Adobe Illustrator 16.0.0, SVG Export Plug-In . SVG Version: 6.00 Build 0)  -->
<!DOCTYPE svg PUBLIC "-//W3C//DTD SVG 1.1//EN" "http://www.w3.org/Graphics/SVG/1.1/DTD/svg11.dtd">
<svg version="1.1" id="レイヤー_1" xmlns="http://www.w3.org/2000/svg" xmlns:xlink="http://www.w3.org/1999/xlink" x="0px"
	 y="0px" width="676.982px" height="142.6px" viewBox="0 2.201 676.982 142.6" enable-background="new 0 2.201 676.982 142.6"
	 xml:space="preserve">
<rect x="0" display="none" fill="#111827" width="1023.999" height="576"/>
<text transform="matrix(1 0 0 1 162.8074 356.0996)" fill="#FFFFFF" font-family="'ZenKakuGothicNew-Bold'" font-size="200">Ki</text>
<text transform="matrix(1 0 0 1 337.6023 356.0996)" fill="#FFFFFF" font-family="'ZenKakuGothicNew-Bold'" font-size="200" letter-spacing="-7">k</text>
<text transform="matrix(1 0 0 1 431.0012 356.0996)" fill="#FFFFFF" font-family="'ZenKakuGothicNew-Bold'" font-size="200">oune</text>
<path fill="#06B6D4" d="M134.193,30.6c-3.868,0-7.199-1.399-10-4.2c-2.8-2.8-4.199-6.131-4.199-10c0-3.864,1.399-7.199,4.199-10
	c2.801-2.8,6.132-4.199,10-4.199c3.866,0,7.2,1.399,10,4.199c2.801,2.801,4.2,6.136,4.2,10c0,3.869-1.399,7.2-4.2,10
	C141.393,29.2,138.059,30.6,134.193,30.6z"/>
<rect x="123.193" y="46.4" fill="#FFFFFF" width="22.4" height="96.2"/>
<path fill="#FFFFFF" d="M172.793,142.6V4.6h22.6v81.599l33.4-39.8h27.2L218.192,89.8l40,52.8h-27l-35.8-48.8v48.8H172.793z"/>
<path fill="#FFFFFF" d="M315.591,144.801c-8.8,0-16.7-2.104-23.7-6.301c-7-4.199-12.534-10.064-16.6-17.602
	c-4.068-7.53-6.102-16.364-6.102-26.5c0-10.131,2.031-18.965,6.102-26.5c4.064-7.53,9.6-13.399,16.6-17.6c7-4.201,14.9-6.3,23.7-6.3
	c9.063,0,17.1,2.1,24.101,6.3c7,4.2,12.5,10.068,16.5,17.6c4,7.535,6,16.371,6,26.5c0,10.136-2,18.97-6,26.5
	c-4,7.535-9.5,13.4-16.5,17.602C332.69,142.697,324.655,144.801,315.591,144.801z M315.591,124.4c7.063,0,12.831-2.601,17.3-7.801
	c4.466-5.199,6.7-12.602,6.7-22.199s-2.234-17-6.7-22.199c-4.469-5.2-10.232-7.801-17.3-7.801c-6.937,0-12.6,2.601-17,7.801
	c-4.4,5.199-6.6,12.602-6.6,22.199s2.198,17,6.6,22.199C302.989,121.801,308.655,124.4,315.591,124.4z"/>
<path fill="#FFFFFF" d="M413.987,144.801c-10,0-18.169-3.201-24.5-9.602c-6.334-6.398-9.5-15.865-9.5-28.398V46.4h22.602v55.401
	c0,7.334,1.564,12.934,4.7,16.799c3.132,3.869,7.229,5.801,12.3,5.801c5.729,0,10.398-2,14-6c3.6-4,5.398-9.864,5.398-17.6V46.4
	h22.602v96.2h-20.199l-1.201-11.398c-2.533,3.602-6,6.77-10.397,9.5C425.389,143.432,420.119,144.801,413.987,144.801z"/>
<path fill="#FFFFFF" d="M485.985,142.6V46.4h20.199l1.2,11.4c2.665-3.731,6.199-6.966,10.601-9.7c4.399-2.73,9.602-4.1,15.602-4.1
	c10,0,18.166,3.2,24.5,9.6c6.331,6.4,9.5,15.8,9.5,28.201V142.6h-22.602V87.2c0-7.601-1.534-13.3-4.601-17.1
	c-3.069-3.8-7.2-5.7-12.399-5.7c-5.732,0-10.398,1.97-14,5.9c-3.601,3.935-5.398,9.769-5.398,17.5v54.8H485.985z"/>
<path fill="#FFFFFF" d="M634.182,144.801c-14,0-25.334-4.232-34-12.701c-8.668-8.465-13-21.031-13-37.699
	c0-10.398,1.932-19.364,5.801-26.898c3.865-7.531,9.268-13.331,16.199-17.4c6.932-4.064,14.865-6.1,23.801-6.1
	c8.933,0,16.531,2.169,22.8,6.5c6.267,4.334,11.065,10.233,14.399,17.7c3.332,7.469,5,15.866,5,25.198V98.6h-65.8
	c0.53,9.602,3.064,16.437,7.601,20.5c4.531,4.069,10.399,6.102,17.602,6.102c6.266,0,11.398-1.5,15.398-4.5s7.466-7.5,10.4-13.5
	l16.6,11.602c-4.936,9.199-10.969,15.834-18.1,19.898C651.749,142.766,643.514,144.801,634.182,144.801z M610.384,81.2h42.601
	c-1.067-6.267-3.368-11.101-6.898-14.5c-3.535-3.4-8.035-5.101-13.5-5.101c-5.869,0-10.7,1.601-14.5,4.8
	C614.282,69.6,611.715,74.535,610.384,81.2z"/>
<g id="XMLID_1_">
	<g>
		<polygon fill="#FFFFFF" points="47.599,67.8 105.599,142.6 76,142.6 23,71 22.989,71 22.989,63.5 23,63.4 75.399,4.6 104.399,4.6 
					"/>
		<polygon fill="#06B6D4" points="22.989,71 23,71 23,142.6 0,142.6 0,4.6 23,4.6 23,63.4 22.989,63.5 		"/>
	</g>
</g>
</svg>
